<?xml version="1.0" encoding="UTF-8" standalone="no"?>
<svg
   xmlns:dc="http://purl.org/dc/elements/1.1/"
   xmlns:cc="http://creativecommons.org/ns#"
   xmlns:rdf="http://www.w3.org/1999/02/22-rdf-syntax-ns#"
   xmlns:svg="http://www.w3.org/2000/svg"
   xmlns="http://www.w3.org/2000/svg"
   xmlns:sodipodi="http://sodipodi.sourceforge.net/DTD/sodipodi-0.dtd"
   xmlns:inkscape="http://www.inkscape.org/namespaces/inkscape"
   version="1.1"
   width="297mm"
   height="210mm"
   viewBox="0 0 1052.3631 744.09512"
   id="svg26"
   sodipodi:docname="caseplans.svg"
   inkscape:version="0.92.3 (2405546, 2018-03-11)">
  <metadata
     id="metadata32">
    <rdf:RDF>
      <cc:Work
         rdf:about="">
        <dc:format>image/svg+xml</dc:format>
        <dc:type
           rdf:resource="http://purl.org/dc/dcmitype/StillImage" />
        <dc:title></dc:title>
      </cc:Work>
    </rdf:RDF>
  </metadata>
  <defs
     id="defs30" />
  <sodipodi:namedview
     pagecolor="#ffffff"
     bordercolor="#666666"
     borderopacity="1"
     objecttolerance="10"
     gridtolerance="10"
     guidetolerance="10"
     inkscape:pageopacity="0"
     inkscape:pageshadow="2"
     inkscape:window-width="1366"
     inkscape:window-height="718"
     id="namedview28"
     showgrid="false"
     inkscape:measure-start="359.638,108.078"
     inkscape:measure-end="341.004,108.078"
     inkscape:document-units="mm"
     inkscape:zoom="1.4142136"
     inkscape:cx="306.14803"
     inkscape:cy="115.3867"
     inkscape:window-x="0"
     inkscape:window-y="22"
     inkscape:window-maximized="1"
     inkscape:current-layer="svg26" />
  <!-- Front-->
  <g
     transform="translate(22.500018,377.89403)"
     id="g4">
    <polygon
       style="fill:none;stroke:#000000;stroke-width:0.90000075"
       points="35.4331,10.62993 70.8662,10.62993 70.8662,0 92.12606,0 92.12606,10.62993 127.55916,10.62993 127.55916,0 162.99226,0 162.99226,31.003963 152.36233,31.003963 152.36233,62.007925 162.99226,62.007925 162.99226,83.267785 152.36233,83.267785 152.36233,114.27175 162.99226,114.27175 162.99226,145.27571 127.55916,145.27571 127.55916,134.64578 92.12606,134.64578 92.12606,145.27571 70.8662,145.27571 70.8662,134.64578 35.4331,134.64578 35.4331,145.27571 0,145.27571 0,114.27175 10.62993,114.27175 10.62993,83.267785 0,83.267785 0,62.007925 10.62993,62.007925 10.62993,31.003963 0,31.003963 0,0 35.4331,0 "
       id="polygon2" />
  </g>
  <!-- Back-->
  <g
     transform="translate(185.49228,377.89403)"
     id="g8">
    <polygon
       style="fill:none;stroke:#000000;stroke-width:0.90000075"
       points="35.4331,10.62993 70.8662,10.62993 70.8662,0 92.12606,0 92.12606,10.62993 127.55916,10.62993 127.55916,0 162.99226,0 162.99226,31.003963 152.36233,31.003963 152.36233,62.007925 162.99226,62.007925 162.99226,83.267785 152.36233,83.267785 152.36233,114.27175 162.99226,114.27175 162.99226,145.27571 127.55916,145.27571 127.55916,134.64578 92.12606,134.64578 92.12606,145.27571 70.8662,145.27571 70.8662,134.64578 35.4331,134.64578 35.4331,145.27571 0,145.27571 0,114.27175 10.62993,114.27175 10.62993,83.267785 0,83.267785 0,62.007925 10.62993,62.007925 10.62993,31.003963 0,31.003963 0,0 35.4331,0 "
       id="polygon6" />
  </g>
  <!-- Left-->
  <g
     transform="translate(348.48454,377.89403)"
     id="g12">
    <polygon
       style="fill:none;stroke:#000000;stroke-width:0.90000075"
       points="33.661445,10.62993 67.32289,10.62993 67.32289,0 88.58275,0 88.58275,10.62993 109.84261,10.62993 109.84261,0 131.10247,0 131.10247,10.62993 164.76391,10.62993 164.76391,0 187.79543,0 187.79543,31.003963 198.42536,31.003963 198.42536,62.007925 187.79543,62.007925 187.79543,83.267785 198.42536,83.267785 198.42536,114.27175 187.79543,114.27175 187.79543,145.27571 164.76391,145.27571 164.76391,134.64578 131.10247,134.64578 131.10247,145.27571 109.84261,145.27571 109.84261,134.64578 88.58275,134.64578 88.58275,145.27571 67.32289,145.27571 67.32289,134.64578 33.661445,134.64578 33.661445,145.27571 10.62993,145.27571 10.62993,114.27175 0,114.27175 0,83.267785 10.62993,83.267785 10.62993,62.007925 0,62.007925 0,31.003963 10.62993,31.003963 10.62993,0 33.661445,0 "
       id="polygon10" />
  </g>
  <!-- Right-->
  <g
     transform="translate(348.48454,523.16974)"
     id="g16">
    <polygon
       style="fill:none;stroke:#000000;stroke-width:0.90000075"
       points="33.661445,10.62993 67.32289,10.62993 67.32289,0 88.58275,0 88.58275,10.62993 109.84261,10.62993 109.84261,0 131.10247,0 131.10247,10.62993 164.76391,10.62993 164.76391,0 187.79543,0 187.79543,31.003963 198.42536,31.003963 198.42536,62.007925 187.79543,62.007925 187.79543,83.267785 198.42536,83.267785 198.42536,114.27175 187.79543,114.27175 187.79543,145.27571 164.76391,145.27571 164.76391,134.64578 131.10247,134.64578 131.10247,145.27571 109.84261,145.27571 109.84261,134.64578 88.58275,134.64578 88.58275,145.27571 67.32289,145.27571 67.32289,134.64578 33.661445,134.64578 33.661445,145.27571 10.62993,145.27571 10.62993,114.27175 0,114.27175 0,83.267785 10.62993,83.267785 10.62993,62.007925 0,62.007925 0,31.003963 10.62993,31.003963 10.62993,0 33.661445,0 "
       id="polygon14" />
  </g>
  <!-- Top-->
  <g
     transform="translate(22.500018,523.16974)"
     id="g20">
    <polygon
       style="fill:none;stroke:#000000;stroke-width:0.90000075"
       points="35.4331,0 70.8662,0 70.8662,10.62993 92.12606,10.62993 92.12606,0 127.55916,0 127.55916,10.62993 152.36233,10.62993 152.36233,33.661445 162.99226,33.661445 162.99226,67.32289 152.36233,67.32289 152.36233,88.58275 162.99226,88.58275 162.99226,109.84261 152.36233,109.84261 152.36233,131.10247 162.99226,131.10247 162.99226,164.76391 152.36233,164.76391 152.36233,187.79543 127.55916,187.79543 127.55916,198.42536 92.12606,198.42536 92.12606,187.79543 70.8662,187.79543 70.8662,198.42536 35.4331,198.42536 35.4331,187.79543 10.62993,187.79543 10.62993,164.76391 0,164.76391 0,131.10247 10.62993,131.10247 10.62993,109.84261 0,109.84261 0,88.58275 10.62993,88.58275 10.62993,67.32289 0,67.32289 0,33.661445 10.62993,33.661445 10.62993,10.62993 35.4331,10.62993 "
       id="polygon18" />
  </g>
  <!-- Bottom-->
  <g
     transform="translate(185.49228,523.16974)"
     id="g24">
    <polygon
       style="fill:none;stroke:#000000;stroke-width:0.90000075"
       points="35.4331,0 70.8662,0 70.8662,10.62993 92.12606,10.62993 92.12606,0 127.55916,0 127.55916,10.62993 152.36233,10.62993 152.36233,33.661445 162.99226,33.661445 162.99226,67.32289 152.36233,67.32289 152.36233,88.58275 162.99226,88.58275 162.99226,109.84261 152.36233,109.84261 152.36233,131.10247 162.99226,131.10247 162.99226,164.76391 152.36233,164.76391 152.36233,187.79543 127.55916,187.79543 127.55916,198.42536 92.12606,198.42536 92.12606,187.79543 70.8662,187.79543 70.8662,198.42536 35.4331,198.42536 35.4331,187.79543 10.62993,187.79543 10.62993,164.76391 0,164.76391 0,131.10247 10.62993,131.10247 10.62993,109.84261 0,109.84261 0,88.58275 10.62993,88.58275 10.62993,67.32289 0,67.32289 0,33.661445 10.62993,33.661445 10.62993,10.62993 35.4331,10.62993 "
       id="polygon22" />
  </g>
  <circle
     id="path34"
     cx="286.01498"
     cy="640.91522"
     style="fill:none;stroke:#000000;stroke-width:1.18538964;stroke-opacity:1"
     r="40.864033" />
  <rect
     style="fill:none;stroke:#000000;stroke-width:1.27963018;stroke-opacity:1"
     id="rect4544"
     width="34.153469"
     height="16.43692"
     x="385.896"
     y="607.56891" />
</svg>
