<svg xmlns="http://www.w3.org/2000/svg" version="1.1" width="225.7mm" height="84.7mm" viewBox = " 0 0 799.725067 300.118357" >
<!-- Front--> 
<g transform="translate(22.5000185, 22.5000185) " > 
<polygon style="stroke:#000000; fill:none; stroke-width:0.90000074" points="0, 0 28.34648, 0 28.34648, 10.62993 56.69296, 10.62993 56.69296, 0 77.95282, 0 77.95282, 10.62993 99.21268, 10.62993 99.21268, 0 120.47254, 0 120.47254, 10.62993 141.73239999999998, 10.62993 141.73239999999998, 0 162.99226, 0 162.99226, 10.62993 184.25212, 10.62993 184.25212, 0 205.51198, 0 205.51198, 10.62993 226.77184, 10.62993 226.77184, 0 248.0317, 0 248.0317, 10.62993 276.37818, 10.62993 276.37818, 0 304.72466, 0 304.72466, 21.968522 294.09472999999997, 21.968522 294.09472999999997, 43.937044 304.72466, 43.937044 304.72466, 65.905566 294.09472999999997, 65.905566 294.09472999999997, 87.874088 304.72466, 87.874088 304.72466, 109.84261 276.37818, 109.84261 276.37818, 99.21267999999999 248.0317, 99.21267999999999 248.0317, 109.84261 226.77184, 109.84261 226.77184, 99.21267999999999 205.51198, 99.21267999999999 205.51198, 109.84261 184.25212, 109.84261 184.25212, 99.21267999999999 162.99226, 99.21267999999999 162.99226, 109.84261 141.73239999999998, 109.84261 141.73239999999998, 99.21267999999999 120.47254, 99.21267999999999 120.47254, 109.84261 99.21268, 109.84261 99.21268, 99.21267999999999 77.95282, 99.21267999999999 77.95282, 109.84261 56.69296, 109.84261 56.69296, 99.21267999999999 28.34648, 99.21267999999999 28.34648, 109.84261 0, 109.84261000000001 0, 87.874088 10.62993, 87.874088 10.62993, 65.905566 0, 65.905566 0, 43.937044 10.62993, 43.937044 10.62993, 21.968522 0, 21.968522 "/> 
</g>
<!-- Back--> 
<g transform="translate(327.2246785, 22.5000185) " > 
<polygon style="stroke:#000000; fill:none; stroke-width:0.90000074" points="0, 0 28.34648, 0 28.34648, 10.62993 56.69296, 10.62993 56.69296, 0 77.95282, 0 77.95282, 10.62993 99.21268, 10.62993 99.21268, 0 120.47254, 0 120.47254, 10.62993 141.73239999999998, 10.62993 141.73239999999998, 0 162.99226, 0 162.99226, 10.62993 184.25212, 10.62993 184.25212, 0 205.51198, 0 205.51198, 10.62993 226.77184, 10.62993 226.77184, 0 248.0317, 0 248.0317, 10.62993 276.37818, 10.62993 276.37818, 0 304.72466, 0 304.72466, 21.968522 294.09472999999997, 21.968522 294.09472999999997, 43.937044 304.72466, 43.937044 304.72466, 65.905566 294.09472999999997, 65.905566 294.09472999999997, 87.874088 304.72466, 87.874088 304.72466, 109.84261 276.37818, 109.84261 276.37818, 99.21267999999999 248.0317, 99.21267999999999 248.0317, 109.84261 226.77184, 109.84261 226.77184, 99.21267999999999 205.51198, 99.21267999999999 205.51198, 109.84261 184.25212, 109.84261 184.25212, 99.21267999999999 162.99226, 99.21267999999999 162.99226, 109.84261 141.73239999999998, 109.84261 141.73239999999998, 99.21267999999999 120.47254, 99.21267999999999 120.47254, 109.84261 99.21268, 109.84261 99.21268, 99.21267999999999 77.95282, 99.21267999999999 77.95282, 109.84261 56.69296, 109.84261 56.69296, 99.21267999999999 28.34648, 99.21267999999999 28.34648, 109.84261 0, 109.84261000000001 0, 87.874088 10.62993, 87.874088 10.62993, 65.905566 0, 65.905566 0, 43.937044 10.62993, 43.937044 10.62993, 21.968522 0, 21.968522 "/> 
</g>
<!-- Left--> 
<g transform="translate(631.9493385, 22.5000185) " > 
<polygon style="stroke:#000000; fill:none; stroke-width:0.90000074" points="10.62993, 0 31.0039625, 0 31.0039625, 10.62993 62.007925, 10.62993 62.007925, 0 83.267785, 0 83.267785, 10.62993 114.2717475, 10.62993 114.2717475, 0 134.64578, 0 134.64578, 21.968522 145.27571, 21.968522 145.27571, 43.937044 134.64578, 43.937044 134.64578, 65.905566 145.27571, 65.905566 145.27571, 87.874088 134.64578, 87.874088 134.64578, 109.84261 114.2717475, 109.84261 114.2717475, 99.21267999999999 83.267785, 99.21267999999999 83.267785, 109.84261 62.007925, 109.84261 62.007925, 99.21267999999999 31.0039625, 99.21267999999999 31.0039625, 109.84261 10.62993, 109.84261000000001 10.62993, 87.874088 0, 87.874088 0, 65.905566 10.62993, 65.905566 10.62993, 43.937044 0, 43.937044 0, 21.968522 10.62993, 21.968522 "/> 
 <rect x="55.62996699999999" y="49.60634" width="35.433099999999996" height="24.80317" rx="3.54331" ry="3.54331" style="stroke:#000000;stroke-width:0.90000074;fill:none" /> 
</g>
<!-- Right--> 
<g transform="translate(631.9493385, 132.3426285) " > 
<polygon style="stroke:#000000; fill:none; stroke-width:0.90000074" points="10.62993, 0 31.0039625, 0 31.0039625, 10.62993 62.007925, 10.62993 62.007925, 0 83.267785, 0 83.267785, 10.62993 114.2717475, 10.62993 114.2717475, 0 134.64578, 0 134.64578, 21.968522 145.27571, 21.968522 145.27571, 43.937044 134.64578, 43.937044 134.64578, 65.905566 145.27571, 65.905566 145.27571, 87.874088 134.64578, 87.874088 134.64578, 109.84261 114.2717475, 109.84261 114.2717475, 99.21267999999999 83.267785, 99.21267999999999 83.267785, 109.84261 62.007925, 109.84261 62.007925, 99.21267999999999 31.0039625, 99.21267999999999 31.0039625, 109.84261 10.62993, 109.84261000000001 10.62993, 87.874088 0, 87.874088 0, 65.905566 10.62993, 65.905566 10.62993, 43.937044 0, 43.937044 0, 21.968522 10.62993, 21.968522 "/> 
</g>
<!-- Top--> 
<g transform="translate(22.5000185, 132.3426285) " > 
<polygon style="stroke:#000000; fill:none; stroke-width:0.90000074" points="10.62993, 10.62993 28.34648, 10.62993 28.34648, 0 56.69296, 0 56.69296, 10.62993 77.95282, 10.62993 77.95282, 0 99.21268, 0 99.21268, 10.62993 120.47254, 10.62993 120.47254, 0 141.73239999999998, 0 141.73239999999998, 10.62993 162.99226, 10.62993 162.99226, 0 184.25212, 0 184.25212, 10.62993 205.51198, 10.62993 205.51198, 0 226.77184, 0 226.77184, 10.62993 248.0317, 10.62993 248.0317, 0 276.37818, 0 276.37818, 10.62993 294.09472999999997, 10.62993 294.09472999999997, 31.0039625 304.72466, 31.0039625 304.72466, 62.007925 294.09472999999997, 62.007925 294.09472999999997, 83.267785 304.72466, 83.267785 304.72466, 114.2717475 294.09472999999997, 114.2717475 294.09472999999997, 134.64578 276.37818, 134.64578 276.37818, 145.27571 248.0317, 145.27571 248.0317, 134.64578 226.77184, 134.64578 226.77184, 145.27571 205.51198, 145.27571 205.51198, 134.64578 184.25212, 134.64578 184.25212, 145.27571 162.99226, 145.27571 162.99226, 134.64578 141.73239999999998, 134.64578 141.73239999999998, 145.27571 120.47254, 145.27571 120.47254, 134.64578 99.21268, 134.64578 99.21268, 145.27571 77.95282, 145.27571 77.95282, 134.64578 56.69296, 134.64578 56.69296, 145.27571 28.34648, 145.27571 28.34648, 134.64578 10.62993, 134.64578 10.62993, 114.2717475 0, 114.2717475 0, 83.267785 10.62993, 83.267785 10.62993, 62.007925 0, 62.007925 0, 31.0039625 10.62993, 31.0039625 "/> 
 <circle cx="230.31515" cy="72.637855" r="22.5000185" style="stroke:#000000;stroke-width:0.90000074;fill:none" /> 
</g>
<!-- Bottom--> 
<g transform="translate(327.2246785, 132.3426285) " > 
<polygon style="stroke:#000000; fill:none; stroke-width:0.90000074" points="10.62993, 10.62993 28.34648, 10.62993 28.34648, 0 56.69296, 0 56.69296, 10.62993 77.95282, 10.62993 77.95282, 0 99.21268, 0 99.21268, 10.62993 120.47254, 10.62993 120.47254, 0 141.73239999999998, 0 141.73239999999998, 10.62993 162.99226, 10.62993 162.99226, 0 184.25212, 0 184.25212, 10.62993 205.51198, 10.62993 205.51198, 0 226.77184, 0 226.77184, 10.62993 248.0317, 10.62993 248.0317, 0 276.37818, 0 276.37818, 10.62993 294.09472999999997, 10.62993 294.09472999999997, 31.0039625 304.72466, 31.0039625 304.72466, 62.007925 294.09472999999997, 62.007925 294.09472999999997, 83.267785 304.72466, 83.267785 304.72466, 114.2717475 294.09472999999997, 114.2717475 294.09472999999997, 134.64578 276.37818, 134.64578 276.37818, 145.27571 248.0317, 145.27571 248.0317, 134.64578 226.77184, 134.64578 226.77184, 145.27571 205.51198, 145.27571 205.51198, 134.64578 184.25212, 134.64578 184.25212, 145.27571 162.99226, 145.27571 162.99226, 134.64578 141.73239999999998, 134.64578 141.73239999999998, 145.27571 120.47254, 145.27571 120.47254, 134.64578 99.21268, 134.64578 99.21268, 145.27571 77.95282, 145.27571 77.95282, 134.64578 56.69296, 134.64578 56.69296, 145.27571 28.34648, 145.27571 28.34648, 134.64578 10.62993, 134.64578 10.62993, 114.2717475 0, 114.2717475 0, 83.267785 10.62993, 83.267785 10.62993, 62.007925 0, 62.007925 0, 31.0039625 10.62993, 31.0039625 "/> 
</g></svg>