<svg xmlns="http://www.w3.org/2000/svg" version="1.1" width="167.7mm" height="72.7mm" viewBox = " 0 0 594.213087 257.598637" >
<!-- Front--> 
<g transform="translate(22.5000185, 22.5000185) " > 
<polygon style="stroke:#000000; fill:none; stroke-width:0.90000074" points="0, 0 22.1456875, 0 22.1456875, 10.62993 44.291375, 10.62993 44.291375, 0 62.007925, 0 62.007925, 10.62993 79.724475, 10.62993 79.724475, 0 97.441025, 0 97.441025, 10.62993 115.157575, 10.62993 115.157575, 0 132.874125, 0 132.874125, 10.62993 150.59067499999998, 10.62993 150.59067499999998, 0 168.307225, 0 168.307225, 10.62993 190.45291249999997, 10.62993 190.45291249999997, 0 212.5986, 0 212.5986, 17.716549999999998 201.96867, 17.716549999999998 201.96867, 35.433099999999996 212.5986, 35.433099999999996 212.5986, 53.149649999999994 201.96867, 53.149649999999994 201.96867, 70.86619999999999 212.5986, 70.86619999999999 212.59859999999998, 88.58275 190.45291249999997, 88.58275 190.45291249999997, 77.95282 168.307225, 77.95282 168.307225, 88.58275 150.59067499999998, 88.58275 150.59067499999998, 77.95282 132.874125, 77.95282 132.874125, 88.58275 115.157575, 88.58275 115.157575, 77.95282 97.441025, 77.95282 97.441025, 88.58275 79.724475, 88.58275 79.724475, 77.95282 62.007925, 77.95282 62.007925, 88.58275 44.291375, 88.58275 44.291375, 77.95282 22.1456875, 77.95282 22.1456875, 88.58275 0, 88.58274999999999 0, 70.86619999999999 10.62993, 70.86619999999999 10.62993, 53.149649999999994 0, 53.149649999999994 0, 35.433099999999996 10.62993, 35.433099999999996 10.62993, 17.716549999999998 0, 17.716549999999998 "/> 
</g>
<!-- Back--> 
<g transform="translate(235.0986185, 22.5000185) " > 
<polygon style="stroke:#000000; fill:none; stroke-width:0.90000074" points="0, 0 22.1456875, 0 22.1456875, 10.62993 44.291375, 10.62993 44.291375, 0 62.007925, 0 62.007925, 10.62993 79.724475, 10.62993 79.724475, 0 97.441025, 0 97.441025, 10.62993 115.157575, 10.62993 115.157575, 0 132.874125, 0 132.874125, 10.62993 150.59067499999998, 10.62993 150.59067499999998, 0 168.307225, 0 168.307225, 10.62993 190.45291249999997, 10.62993 190.45291249999997, 0 212.5986, 0 212.5986, 17.716549999999998 201.96867, 17.716549999999998 201.96867, 35.433099999999996 212.5986, 35.433099999999996 212.5986, 53.149649999999994 201.96867, 53.149649999999994 201.96867, 70.86619999999999 212.5986, 70.86619999999999 212.59859999999998, 88.58275 190.45291249999997, 88.58275 190.45291249999997, 77.95282 168.307225, 77.95282 168.307225, 88.58275 150.59067499999998, 88.58275 150.59067499999998, 77.95282 132.874125, 77.95282 132.874125, 88.58275 115.157575, 88.58275 115.157575, 77.95282 97.441025, 77.95282 97.441025, 88.58275 79.724475, 88.58275 79.724475, 77.95282 62.007925, 77.95282 62.007925, 88.58275 44.291375, 88.58275 44.291375, 77.95282 22.1456875, 77.95282 22.1456875, 88.58275 0, 88.58274999999999 0, 70.86619999999999 10.62993, 70.86619999999999 10.62993, 53.149649999999994 0, 53.149649999999994 0, 35.433099999999996 10.62993, 35.433099999999996 10.62993, 17.716549999999998 0, 17.716549999999998 "/> 
</g>
<!-- Left--> 
<g transform="translate(447.69721849999996, 22.5000185) " > 
 <rect x="55.62996699999999" y="49.60634" width="35.433099999999996" height="24.80317" rx="3.54331" ry="3.54331" style="stroke:#000000;stroke-width:0.90000074;fill:none" /> 
<polygon style="stroke:#000000; fill:none; stroke-width:0.90000074" points="10.62993, 0 26.574825, 0 26.574825, 10.62993 53.14965, 10.62993 53.14965, 0 70.86619999999999, 0 70.86619999999999, 10.62993 97.441025, 10.62993 97.441025, 0 113.38592, 0 113.38592, 17.716549999999998 124.01585, 17.716549999999998 124.01585, 35.433099999999996 113.38592, 35.433099999999996 113.38592, 53.149649999999994 124.01585, 53.149649999999994 124.01585, 70.86619999999999 113.38592, 70.86619999999999 113.38592, 88.58275 97.441025, 88.58275 97.441025, 77.95282 70.86619999999999, 77.95282 70.86619999999999, 88.58275 53.14965, 88.58275 53.14965, 77.95282 26.574825, 77.95282 26.574825, 88.58275 10.62993, 88.58274999999999 10.62993, 70.86619999999999 0, 70.86619999999999 0, 53.149649999999994 10.62993, 53.149649999999994 10.62993, 35.433099999999996 0, 35.433099999999996 0, 17.716549999999998 10.62993, 17.716549999999998 "/> 
</g>
<!-- Right--> 
<g transform="translate(447.69721849999996, 111.0827685) " > 
<polygon style="stroke:#000000; fill:none; stroke-width:0.90000074" points="10.62993, 0 26.574825, 0 26.574825, 10.62993 53.14965, 10.62993 53.14965, 0 70.86619999999999, 0 70.86619999999999, 10.62993 97.441025, 10.62993 97.441025, 0 113.38592, 0 113.38592, 17.716549999999998 124.01585, 17.716549999999998 124.01585, 35.433099999999996 113.38592, 35.433099999999996 113.38592, 53.149649999999994 124.01585, 53.149649999999994 124.01585, 70.86619999999999 113.38592, 70.86619999999999 113.38592, 88.58275 97.441025, 88.58275 97.441025, 77.95282 70.86619999999999, 77.95282 70.86619999999999, 88.58275 53.14965, 88.58275 53.14965, 77.95282 26.574825, 77.95282 26.574825, 88.58275 10.62993, 88.58274999999999 10.62993, 70.86619999999999 0, 70.86619999999999 0, 53.149649999999994 10.62993, 53.149649999999994 10.62993, 35.433099999999996 0, 35.433099999999996 0, 17.716549999999998 10.62993, 17.716549999999998 "/> 
</g>
<!-- Top--> 
<g transform="translate(22.5000185, 111.0827685) " > 
<polygon style="stroke:#000000; fill:none; stroke-width:0.90000074" points="10.62993, 10.62993 22.1456875, 10.62993 22.1456875, 0 44.291375, 0 44.291375, 10.62993 62.007925, 10.62993 62.007925, 0 79.724475, 0 79.724475, 10.62993 97.441025, 10.62993 97.441025, 0 115.157575, 0 115.157575, 10.62993 132.874125, 10.62993 132.874125, 0 150.59067499999998, 0 150.59067499999998, 10.62993 168.307225, 10.62993 168.307225, 0 190.45291249999997, 0 190.45291249999997, 10.62993 201.96867, 10.62993 201.96867, 26.574825 212.5986, 26.574825 212.5986, 53.14965 201.96867, 53.14965 201.96867, 70.86619999999999 212.5986, 70.86619999999999 212.5986, 97.441025 201.96867, 97.441025 201.96866999999997, 113.38592 190.45291249999997, 113.38592 190.45291249999997, 124.01585 168.307225, 124.01585 168.307225, 113.38592 150.59067499999998, 113.38592 150.59067499999998, 124.01585 132.874125, 124.01585 132.874125, 113.38592 115.157575, 113.38592 115.157575, 124.01585 97.441025, 124.01585 97.441025, 113.38592 79.724475, 113.38592 79.724475, 124.01585 62.007925, 124.01585 62.007925, 113.38592 44.291375, 113.38592 44.291375, 124.01585 22.1456875, 124.01585 22.1456875, 113.38592 10.62993, 113.38592 10.62993, 97.441025 0, 97.441025 0, 70.86619999999999 10.62993, 70.86619999999999 10.62993, 53.14965 0, 53.14965 0, 26.574825 10.62993, 26.574825 "/> 
</g>
<!-- Bottom--> 
<g transform="translate(235.0986185, 111.0827685) " > 
<polygon style="stroke:#000000; fill:none; stroke-width:0.90000074" points="10.62993, 10.62993 22.1456875, 10.62993 22.1456875, 0 44.291375, 0 44.291375, 10.62993 62.007925, 10.62993 62.007925, 0 79.724475, 0 79.724475, 10.62993 97.441025, 10.62993 97.441025, 0 115.157575, 0 115.157575, 10.62993 132.874125, 10.62993 132.874125, 0 150.59067499999998, 0 150.59067499999998, 10.62993 168.307225, 10.62993 168.307225, 0 190.45291249999997, 0 190.45291249999997, 10.62993 201.96867, 10.62993 201.96867, 26.574825 212.5986, 26.574825 212.5986, 53.14965 201.96867, 53.14965 201.96867, 70.86619999999999 212.5986, 70.86619999999999 212.5986, 97.441025 201.96867, 97.441025 201.96866999999997, 113.38592 190.45291249999997, 113.38592 190.45291249999997, 124.01585 168.307225, 124.01585 168.307225, 113.38592 150.59067499999998, 113.38592 150.59067499999998, 124.01585 132.874125, 124.01585 132.874125, 113.38592 115.157575, 113.38592 115.157575, 124.01585 97.441025, 124.01585 97.441025, 113.38592 79.724475, 113.38592 79.724475, 124.01585 62.007925, 124.01585 62.007925, 113.38592 44.291375, 113.38592 44.291375, 124.01585 22.1456875, 124.01585 22.1456875, 113.38592 10.62993, 113.38592 10.62993, 97.441025 0, 97.441025 0, 70.86619999999999 10.62993, 70.86619999999999 10.62993, 53.14965 0, 53.14965 0, 26.574825 10.62993, 26.574825 "/> 
</g></svg>